<svg xmlns="http://www.w3.org/2000/svg" width="925.047" height="600"><path d="M735.52 201.228c0 1.7.69 3.243 1.805 4.359a6.17 6.17 0 0 0 4.359 1.81v-.004h.012v.005c1.702 0 3.243-.69 4.356-1.809.403-.4.746-.857 1.026-1.354a6.11 6.11 0 0 0 .785-3.002h-.005v-.01h.005a6.136 6.136 0 0 0-1.806-4.36 6.154 6.154 0 0 0-4.354-1.811v.007h-.014v-.007a6.15 6.15 0 0 0-4.359 1.808 6.156 6.156 0 0 0-1.81 4.356h.006v.012h-.007zM593.484-333.966l-6.643 6.643v196.648l6.643 6.646 16.205 16.204L634.46-83.05l19.412 19.406.451.456V93.098l-.451.45-19.412 19.413-4.353 4.356v35.23l4.353 4.356 3.603 3.6h65.425l.449.451 32.866 32.866a8.868 8.868 0 0 1 4.885-1.46v-.008h.014v.007a8.809 8.809 0 0 1 6.254 2.589 8.851 8.851 0 0 1 2.603 6.275h.002v.01h-.002a8.837 8.837 0 0 1-3.482 7.036 8.844 8.844 0 0 1-5.382 1.823v.005H741.683v-.005a8.817 8.817 0 0 1-6.256-2.59 8.835 8.835 0 0 1-2.603-6.274h-.004v-.012h.004c0-1.977.645-3.803 1.741-5.276l-32.358-32.354h-65.425l-.45-.454-1.87-1.87-6.984-6.986-.451-.447v-37.787l.451-.454 6.983-6.986 16.782-16.784V-61.91l-16.782-16.782-24.771-24.772-16.205-16.205-9.277-9.277-.45-.446V-328.601l.45-.454 9.277-9.274 1.299-1.3-.152-15.098-1.147-1.145-9.615-9.615-.452-.447v-38.542l-1.627-1.205-2.97-2.2v282.478l2.97 2.967 11.694 11.694 16.205 16.207 24.771 24.772 11.057 11.057.447.452V86.412l-.447.451-11.057 11.057-12.882 12.88v48.621l9.79 9.777h63.454l.449.452 33.1 33.1.451.451v11.897c3.864.724 6.795 4.12 6.795 8.195 0 4.598-3.73 8.33-8.335 8.33-4.598 0-8.33-3.732-8.33-8.33a8.343 8.343 0 0 1 6.79-8.197V204.48l-32.2-32.2H630.103l-.452-.451-10.692-10.692-.458-.452v-51.164l.451-.454 15.51-15.511 8.424-8.422V-56.98l-8.425-8.42-24.771-24.774-16.205-16.207-11.694-11.692-5.6-5.6-.451-.453V-413.987l2.458 1.82 3.593 2.664 4.085 3.02.623.466v38.801l6.986 6.986 3.767 3.764.44.44.004.637.164 16.386.007.652-.449.451-3.933 3.934zM406.421 476.394c0 1.867.766 3.567 1.995 4.791a6.78 6.78 0 0 0 4.774 1.992v-.007H413.23v.007a6.793 6.793 0 0 0 4.795-2l.003.003a6.779 6.779 0 0 0 1.987-4.771h-.005v-.039h.005a6.771 6.771 0 0 0-1.992-4.798h-.008a6.775 6.775 0 0 0-4.77-1.994v.007H413.203v-.007a6.785 6.785 0 0 0-4.793 1.994 6.787 6.787 0 0 0-1.99 4.784h.005v.038h-.005zm-1.861-4.754a9.893 9.893 0 0 1 6.085-4.798V456.995l.453-.452 2.12-2.124.022-.02 7.92-7.925 8.034-8.03.075-67.258-8.109-8.109-3.3-3.303-.452-.451V259.107l-4.19-4.189-8.658-8.659-1.157-1.161-15.632-15.628-.051-.053-.399-.398V203.22l.399-.396.05-.055 6.247-6.244a8.253 8.253 0 0 1-1.449-4.697c0-4.607 3.729-8.34 8.326-8.34 1.316 0 2.562.302 3.666.845a8.337 8.337 0 0 1 4.67 7.495 8.326 8.326 0 0 1-8.336 8.328 8.318 8.318 0 0 1-4.696-1.453l-5.795 5.795v23.24l12.783 12.784 1.374 1.376 8.659 8.66 6.82 6.818.45.454V358.043l.671.673 9.393 9.391 1.343 1.345.193.196.254.25v.643l-.078 68.547v.647l-.176.172-.268.27-1.268 1.265-9.393 9.396-7.434 7.434v8.246a9.862 9.862 0 0 1 6.473 2.874l-.005.005a9.836 9.836 0 0 1 2.893 6.974h.007v.038h-.007a9.803 9.803 0 0 1-1.927 5.831c-.29.394-.608.763-.953 1.108v.01a9.862 9.862 0 0 1-6.976 2.89v.005H413.19v-.005a9.836 9.836 0 0 1-6.94-2.883 9.867 9.867 0 0 1-2.9-6.971h-.005v-.038h.005a9.889 9.889 0 0 1 1.21-4.716" fill="#eeeeee"/><path d="M397.761 167.204a6.744 6.744 0 0 0 .828 3.233l.734.732-.154.154c.18.237.384.464.591.674l-.002.002a6.754 6.754 0 0 0 4.771 1.988v-.003h.039v.003a6.782 6.782 0 0 0 4.798-1.997l.002.002a6.766 6.766 0 0 0 1.988-4.774h-.005v-.038h.005a6.799 6.799 0 0 0-6.773-6.788v.007h-.039v-.007a6.759 6.759 0 0 0-4.79 1.995 6.8 6.8 0 0 0-1.993 4.776h.007v.041h-.007zm-58.15 266.203V426.41l.464-.456.01-.01 7.693-7.572 6.507-6.409 14.334-14.108V382.945l.456-.459 9.93-9.926 3.312-3.31v-34.134l.425-.45 4.977-5.21 7.125-7.464v-50.084l-7.125-7.126-8.715-8.714-24.644-24.644-.075-.073-.374-.379v-29.797l.374-.374.075-.075 24.644-24.641 8.715-8.717 5.36-5.358V149.24l.45-.449 11.032-11.032 8.656-8.66 4.178-4.174V73.692l.444-.445 3.322-3.325 9.393-9.388 1.536-1.538.71-.712.959-.956v-64.35l-.959-.954-.71-.713-1.536-1.535-9.393-9.393-7.944-7.945-1.057-1.055-.452-.454v-60.914l-7.147-7.145-13.829-13.829V20.456l-.45.452-2.563 2.566-8.715 8.712-24.356 24.357v133.634l-.003.637-.36.36-.089.092-6.418 6.418-22.512 22.514v12.298a8.337 8.337 0 0 1 6.793 8.193 8.333 8.333 0 0 1-9.529 8.246c-4.032-.582-7.135-4.052-7.135-8.246a8.332 8.332 0 0 1 6.788-8.196v-13.575l.347-.347.104-.104 25.144-25.144 3.786-3.786V55.265l.452-.449 2.27-2.27 24.718-24.718 8.65-8.65V-114.68l-.005-3.718.07.067 2.564 2.562 14.278 14.276 8.656 8.656 1.12 1.12.452.452v60.914l6.372 6.375 9.393 9.388 1.536 1.54.71.71 2.939 2.935.652.651.451.452v66.91l-.451.447-.652.652-2.939 2.936-.71.71-1.536 1.535-9.393 9.396-.695.698v51.231l-.45.444-6.799 6.8-8.656 8.661-8.403 8.403v11.475c.405-.65.884-1.244 1.417-1.78a9.825 9.825 0 0 1 6.969-2.895v-.007H404.582v.007a9.842 9.842 0 0 1 8.635 5.129 9.828 9.828 0 0 1 1.212 4.728h.005v.038h-.005a9.833 9.833 0 0 1-2.883 6.942v.008a9.853 9.853 0 0 1-6.978 2.89v.005h-.039v-.005a9.834 9.834 0 0 1-6.942-2.88h-.007c-.208-.21-.413-.435-.604-.665l-9.257 9.258-8.715 8.714-10.656 10.656v27.088l10.656 10.653 8.715 8.715 3.392 3.395 13.45 13.447 5.124 5.124.449.451v86.524l3.083 3.086 7.944 7.942 1.213 1.217.454.452v68.233l-.454.449-1.213 1.214-7.944 7.942-8.656 8.661-16.842 16.843-8.715 8.716-3.39 3.39a8.325 8.325 0 0 1 2.533 5.991c0 4.598-3.728 8.326-8.333 8.326-4.598 0-8.33-3.728-8.33-8.326 0-4.604 3.732-8.337 8.33-8.337 1.123 0 2.19.22 3.168.62l6.022-6.024 8.715-8.715 16.842-16.844 8.656-8.66 6.527-6.524v-65.68l-6.527-6.525-5.713-5.715-.449-.454v-86.524l-2.494-2.492-13.8-13.798-3.042-3.047-8.715-8.712-13.285-13.28-.445-.445V200.854l.445-.449 13.285-13.278 8.715-8.714 7.64-7.643a9.917 9.917 0 0 1-.667-3.566h-.005V167.162h.005a9.874 9.874 0 0 1 .41-2.815l-7.383 7.382-8.715 8.714-22.012 22.012v27.24l22.012 22.014 8.715 8.712 9.755 9.758.449.451V323.214l-.425.45-9.78 10.24-2.322 2.429v34.184l-.457.456-5.935 5.936-7.304 7.302V399.138l-.464.454-16.95 16.685-6.508 6.408-5.083 5.004v5.72a8.341 8.341 0 0 1 5.083 3.132 8.29 8.29 0 0 1 1.714 5.063c0 1.9-.637 3.654-1.714 5.057a8.325 8.325 0 0 1-6.623 3.274c-4.598 0-8.331-3.733-8.331-8.33a8.341 8.341 0 0 1 6.788-8.198M442.643 384.75l9.82-9.823v-48.201l.452-.452 4.163-4.165 1.54-1.538 9.881-9.888v-10.26a8.327 8.327 0 0 1-6.79-8.186c0-4.604 3.73-8.337 8.33-8.337a8.334 8.334 0 0 1 1.541 16.523v11.525l-.451.452-3.023 3.025-9.488 9.495-1.54 1.535-1.533 1.536v48.213l-.452.452-12.45 12.455-1.799 1.796v58.352l1.8 1.669 6.393 5.93a8.324 8.324 0 0 1 4.965-1.634 8.293 8.293 0 0 1 4.616 1.393 8.332 8.332 0 0 1 0 13.88c-.483.32-.997.588-1.54.808a8.333 8.333 0 0 1-11.407-7.744c0-1.634.466-3.16 1.277-4.447l-4.305-3.994-4.387-4.069-.493-.456V389.63l.447-.452 4.433-4.428zM609.689-333.143l-13.829 13.83v185.624l13.829 13.827 24.774 24.774 27.761 27.756.442.447v179.768l30.555 30.553h21.295l.454.451 25.315 25.318H758.977l.454.449 9.224 9.224 5.486 5.488.447.447V218.93l-.447.442-5.486 5.488-6.423 6.423v6.235a8.353 8.353 0 0 1 6.423 5.72 8.385 8.385 0 0 1 0 4.945 8.344 8.344 0 0 1-7.964 5.86c-4.6 0-8.33-3.733-8.33-8.333a8.331 8.331 0 0 1 6.79-8.192v-7.515l.35-.348.101-.103 9.053-9.05 2.864-2.864v-31.536l-2.864-2.866-10.955-10.953h-18.692l-.452-.449-25.317-25.317h-21.3l-.452-.452-31.445-31.446-.445-.444V-65.595L634.463-90.73l-24.774-24.769-16.205-16.207-.253-.256-.452-.45v-188.18l.452-.449.253-.256 16.205-16.207 5.802-5.8v-16.463l-5.802-5.8-10.446-10.448-.451-.452V-526.088l.451-.454 10.446-10.443 1.135-1.135v-29.8h3.069v31.092l-.447.444-3.757 3.76-7.814 7.813v147.064l7.814 7.82 8.432 8.433.454.447v19.02l-.454.452-8.432 8.432z" fill="#eeeeee"/><path d="M619.861 74.475c-4.597 0-8.332-3.733-8.332-8.333a8.336 8.336 0 0 1 8.332-8.336c1.749 0 3.367.534 4.707 1.454l5.295-5.298v-66.987l-7.302-7.302a8.276 8.276 0 0 1-4.699 1.451c-4.044 0-7.418-2.888-8.173-6.71a8.335 8.335 0 0 1-.157-1.618c0-.555.053-1.096.157-1.62.755-3.83 4.129-6.72 8.173-6.72a8.336 8.336 0 0 1 8.336 8.34c0 1.741-.541 3.359-1.456 4.697l7.75 7.753.454.444v69.554l-.453.447-5.75 5.752a8.287 8.287 0 0 1 1.459 4.699c0 4.6-3.736 8.333-8.34 8.333M361.084-84.123a6.78 6.78 0 0 0-2.002-4.796l.008-.002a6.803 6.803 0 0 0-4.784-1.992v.007h-.036v-.007a6.763 6.763 0 0 0-4.788 1.997 6.805 6.805 0 0 0-1.995 4.78h.007v.039h-.007a6.805 6.805 0 0 0 1.995 4.79 6.766 6.766 0 0 0 4.773 1.99v-.002h.039v.003c1.869 0 3.571-.761 4.798-1.99v-.007a6.754 6.754 0 0 0 1.992-4.767h-.002V-84.123h.002zm-95.992 295.557a8.329 8.329 0 0 1 8.19 6.793h8.974l21.739-21.737 18.534-18.53 11.914-11.914V53.403l.447-.45 12.89-12.891 6.507-6.51 13.77-13.768v-89.246l-7.246-7.246a9.855 9.855 0 0 1-6.517 2.465v.005h-.039v-.005a9.838 9.838 0 0 1-6.94-2.883 9.837 9.837 0 0 1-2.897-6.97h-.005v-.039h.005a9.83 9.83 0 0 1 3.361-7.394 9.817 9.817 0 0 1 6.491-2.45v-.008H354.307v.007a9.828 9.828 0 0 1 6.949 2.88h.007a9.848 9.848 0 0 1 2.893 6.977h.004v.044h-.004a9.882 9.882 0 0 1-1.367 4.988l7.898 7.898.452.454v91.803l-.452.451-16.4 16.4-6.508 6.508-10.264 10.265V166.69l-.003.647-.444.444-14.539 14.536-18.534 18.533-20.008 20.008-.452.451H273.283c-.725 3.864-4.115 6.79-8.19 6.79-4.6 0-8.334-3.733-8.334-8.33a8.335 8.335 0 0 1 8.333-8.336M381.101 301.733h.013v.005a6.783 6.783 0 0 0 4.795-2l.005.006a6.84 6.84 0 0 0 1.806-3.226 6.96 6.96 0 0 0 .181-1.548h-.005v-.039h.005c0-.538-.063-1.065-.181-1.567a6.805 6.805 0 0 0-1.81-3.228 6.789 6.789 0 0 0-4.784-1.992v.004h-.039v-.004a6.832 6.832 0 0 0-2.084.328 6.77 6.77 0 0 0-2.704 1.666 6.767 6.767 0 0 0-1.992 4.779h.005v.038h-.005a6.772 6.772 0 0 0 1.999 4.79l-.005.006a6.812 6.812 0 0 0 4.774 1.987v-.005h.026zm-77.106 47.634a8.33 8.33 0 0 1 2.204-.295c1.683 0 3.245.498 4.554 1.353l10.233-10.717.454-.478h35.03l22.533-23.593.99-1.036v-9.854a10.075 10.075 0 0 1-.99-.165 9.83 9.83 0 0 1-4.87-2.653h-.007a9.872 9.872 0 0 1-2.893-6.974h-.003v-.038h.003a9.85 9.85 0 0 1 2.885-6.947 9.839 9.839 0 0 1 6.969-2.898v-.005h.039v.005a9.857 9.857 0 0 1 6.594 2.543c.12.11.24.224.353.34a9.859 9.859 0 0 1 2.897 6.976h.007v.039h-.007a9.825 9.825 0 0 1-2.88 6.944v.005a9.89 9.89 0 0 1-5.015 2.69v10.603l-.003.61-.425.45-3.644 3.812-20.763 21.742-.457.476H322.754l-.225.234-9.557 10.011a8.3 8.3 0 0 1 1.565 4.863c0 4.595-3.733 8.33-8.338 8.33a8.331 8.331 0 0 1-8.33-8.33 8.343 8.343 0 0 1 6.126-8.043M447.99 123.58a6.797 6.797 0 0 0-1.758-3.023l.003-.005a6.776 6.776 0 0 0-4.779-1.987v.004h-.036v-.004a6.764 6.764 0 0 0-4.793 1.992 6.775 6.775 0 0 0-1.992 4.781h.007v.041h-.007a6.765 6.765 0 0 0 1.994 4.786 6.768 6.768 0 0 0 4.776 1.994v-.005H441.442v.005c.41 0 .81-.039 1.202-.106a6.833 6.833 0 0 0 3.596-1.893 6.768 6.768 0 0 0 1.861-3.502h-.241V123.58h.13zm-2.555 79.403c0-1.78-.697-3.407-1.823-4.614l-.169-.184-.142-.137a7.954 7.954 0 0 0-.657-.553 6.792 6.792 0 0 0-3.982-1.3v.008H438.621v-.008a6.719 6.719 0 0 0-2.883.65 6.75 6.75 0 0 0-1.905 1.343 7.13 7.13 0 0 0-1.033 1.32 6.994 6.994 0 0 0-.71 1.654 6.866 6.866 0 0 0-.249 1.807h.005v.038h-.005c0 .628.09 1.234.249 1.816.166.584.405 1.14.71 1.652.292.483.64.93 1.035 1.323.551.55 1.19 1.004 1.903 1.34.877.415 1.847.65 2.871.652v-.005h.039v.005a6.8 6.8 0 0 0 3.996-1.309c.283-.21.55-.44.8-.69a6.759 6.759 0 0 0 1.991-4.772h-.004V202.983h.004zm13.182-333.086l-1.08 1.077V55.999l1.08 1.077 20.867 20.87.452.453v35.778l-.452.452-20.867 20.87-1.54 1.535-2.36 2.362v50.78l-.536.466-7.459 6.688a9.866 9.866 0 0 1 1.787 5.653h.005V203.019h-.005a9.852 9.852 0 0 1-2.883 6.952 9.997 9.997 0 0 1-2.982 2.045 9.9 9.9 0 0 1-3.996.845v.008h-.039v-.008a9.833 9.833 0 0 1-8.055-4.214 9.797 9.797 0 0 1-1.784-5.64h-.005v-.038h.005a9.837 9.837 0 0 1 3.32-7.36c.23-.203.468-.396.71-.575a9.948 9.948 0 0 1 2.938-1.478 9.758 9.758 0 0 1 2.883-.432v-.005H438.662v.005a9.88 9.88 0 0 1 3.982.845 9.85 9.85 0 0 1 1.941 1.147l7.049-6.333v-50.665l.454-.451 4.988-4.991 1.541-1.538 18.238-18.238V79.674l-18.238-18.238-1.54-1.538-2.162-2.168-.446-.442v-187.603l.446-.447 2.161-2.164 1.541-1.54 21.242-21.242V-451.81l-6.945-6.945v304.663l-.451.454-13.846 13.846-1.54 1.54-7.549 7.549V55.337l7.548 7.548 1.541 1.536 12.515 12.522.452.452v34.768l-.452.45-12.515 12.517-1.082 1.08-.451.448h-5.87a9.834 9.834 0 0 1-8.57 8.495 9.863 9.863 0 0 1-1.202.075v.007H441.405v-.007a9.81 9.81 0 0 1-6.942-2.88 9.971 9.971 0 0 1-1.663-2.2 10.71 10.71 0 0 1-.71-1.601 9.962 9.962 0 0 1-.527-3.168h-.002v-.041h.002c.005-1.106.191-2.174.527-3.166.193-.555.43-1.091.71-1.598a10.013 10.013 0 0 1 2.938-3.277 9.85 9.85 0 0 1 5.682-1.806v-.005h.036v.005a9.854 9.854 0 0 1 6.95 2.883h.01a9.86 9.86 0 0 1 2.723 5.206h4.667l1.27-1.273 1.541-1.538 9.886-9.885V78.672l-9.886-9.888-1.54-1.538-10.178-10.178-.452-.451v-188.599l.452-.451 10.177-10.183 1.541-1.535 11.214-11.216v-310.819l2.632 2.632 10.025 10.03.454.452v298.644l-.454.449-23.871 23.876zM639.266-299.697a6.743 6.743 0 0 0 1.99-4.773h-.003v-.039h.003c0-1.874-.761-3.574-1.99-4.796a6.778 6.778 0 0 0-4.779-1.994v.005h-.041v-.005a6.75 6.75 0 0 0-4.788 1.994 6.785 6.785 0 0 0-1.994 4.781h.004v.041h-.004a6.786 6.786 0 0 0 1.999 4.791l-.005.003a6.795 6.795 0 0 0 4.774 1.987v-.007h.041v.007a6.756 6.756 0 0 0 4.793-1.995m176.88 83.834a8.333 8.333 0 0 1-8.188-6.787h-13.872l-8.253 8.253-11.376 11.376-.454.451h-68.238l-.449-.451-18.962-18.96H661.196l-.45-.452-26.283-26.288-1.144-1.145-.454-.451v-44.434a9.863 9.863 0 0 1-5.375-2.763h-.008a9.84 9.84 0 0 1-2.887-6.969h-.008v-.041h.008a9.828 9.828 0 0 1 2.88-6.946 9.833 9.833 0 0 1 6.971-2.898v-.005h.041v.005a9.812 9.812 0 0 1 6.942 2.88 9.832 9.832 0 0 1 2.9 6.979h.008v.039h-.008a9.81 9.81 0 0 1-2.88 6.94 9.917 9.917 0 0 1-5.503 2.793v43.143l26.532 26.532h25.153l.454.449 18.958 18.962H772.725l13.108-13.104 6.524-6.527.454-.45H807.96a8.34 8.34 0 0 1 1.232-3.047c1.495-2.255 4.054-3.752 6.954-3.752a8.341 8.341 0 0 1 8.34 8.343c0 4.592-3.733 8.325-8.34 8.325M839.908 202.408l-.451-.451-20.964-20.967h-30.869v33.649l13.915 13.913.45.451v44.546l7.202 7.205 6.769 6.766a8.328 8.328 0 0 1 4.706-1.451 8.336 8.336 0 0 1 8.335 8.337c0 4.598-3.733 8.33-8.335 8.33-4.598 0-8.33-3.732-8.33-8.33 0-1.745.533-3.368 1.446-4.706l-4.59-4.585-9.833-9.835-.452-.452v-44.547l-13.075-13.073-.838-.838-.454-.452V177.907H819.77l.452.451 20.964 20.97h17.993l.46.456 10.433 10.433a8.304 8.304 0 0 1 4.706-1.45 8.334 8.334 0 0 1 8.338 8.332c0 4.602-3.73 8.33-8.338 8.33a8.33 8.33 0 0 1-8.33-8.33c0-1.74.536-3.366 1.45-4.706l-9.981-9.985h-18.009zM762.722 117.567c0-3.772 2.5-6.954 5.933-7.985a8.336 8.336 0 0 1 10.733 7.985c0 4.6-3.733 8.33-8.338 8.33a8.34 8.34 0 0 1-2.395-.35c-3.434-1.033-5.933-4.213-5.933-7.98M915.87-155.77a8.295 8.295 0 0 1-4.706-1.454l-1.825 1.828-.461.463-.645-.012-9.12-.116-23.842-.304-25.173 25.175v13.08l-.459.452-3.844 3.847-7.534 7.528-.451.452h-22.49a8.342 8.342 0 0 1-6.129 6.532 8.38 8.38 0 0 1-2.064.256c-4.595 0-8.326-3.734-8.326-8.331 0-4.605 3.73-8.335 8.326-8.335a8.345 8.345 0 0 1 8.193 6.792h21.227l9.248-9.24 1.22-1.22v-13.093l.453-.453L873.544-158l.452-.454.654.007 30.021.384 2.951.039 1.37-1.372a8.32 8.32 0 0 1-1.452-4.71c0-4.603 3.735-8.336 8.33-8.336 4.603 0 8.338 3.733 8.338 8.335 0 4.6-3.735 8.336-8.338 8.336" fill="#eeeeee"/><path d="M838.996 182.757a6.754 6.754 0 0 0 1.992 4.788 6.776 6.776 0 0 0 4.776 1.994v-.005h.036v.005c1.869 0 3.571-.77 4.8-2a6.777 6.777 0 0 0 1.992-4.77h-.004V182.732h.004a6.791 6.791 0 0 0-1.992-4.798 6.81 6.81 0 0 0-4.785-1.992v.008h-.037v-.008a6.782 6.782 0 0 0-4.46 1.676l-1.043 1.145a6.766 6.766 0 0 0-1.28 3.952H839V182.757h-.004zm-66.413-40.41l13.25 13.245 10.935 10.938h33.67l.444.4 8.824 8.037a9.866 9.866 0 0 1 6.072-2.094v-.004H845.815v.004a9.855 9.855 0 0 1 6.949 2.883 9.832 9.832 0 0 1 2.897 6.976h.005V182.77h-.005a9.831 9.831 0 0 1-2.883 6.951 9.863 9.863 0 0 1-6.978 2.89v.006H845.764v-.005a9.848 9.848 0 0 1-6.94-2.881 9.833 9.833 0 0 1-2.897-6.973h-.005v-.042h.005a9.782 9.782 0 0 1 1.683-5.495l-8.355-7.609h-33.769l-.449-.451-9.205-9.207-15.874-15.872-.444-.442v-17.743h3.069v16.451zM866.95 134.796h-.64l-.449-.451-20.066-20.064-2.673-2.67-.451-.45.007-.642.017-17.448-27.657-27.66-.447-.447v-.644l.017-39.76.002-6.45-5.418-5.26-7.478-7.267-.469-.456V-20.077l-15.412-15.41-12.117-12.12H760.115a8.33 8.33 0 0 1-8.196 6.793 8.303 8.303 0 0 1-4.842-1.548 8.326 8.326 0 0 1-3.486-6.78 8.323 8.323 0 0 1 3.486-6.78 8.29 8.29 0 0 1 4.842-1.553c4.078 0 7.468 2.931 8.193 6.8H775.003l.447.444 10.383 10.383 18.042 18.045.451.449V3.838l4.866 4.732 8.026 7.792.466.45v.65l-.007 10.706-.015 35.507 27.66 27.66.445.449v.642l-.017 17.449.045.045 21.795 21.795h33.979l.437.374 9.465 8.072a8.309 8.309 0 0 1 5.238-1.85 8.336 8.336 0 0 1 8.338 8.339c0 4.595-3.731 8.328-8.338 8.328-4.598 0-8.328-3.733-8.328-8.328 0-1.51.393-2.93 1.091-4.154l-9.026-7.7H866.95zM515.12 419.56a8.294 8.294 0 0 1 4.705-1.453c4.603 0 8.333 3.733 8.333 8.338 0 4.597-3.73 8.33-8.333 8.33-4.6 0-8.33-3.733-8.33-8.33 0-1.744.531-3.364 1.449-4.704l-5.95-5.947-.452-.452v-52.789l.452-.45 3.89-3.892 35.643-35.64v-26.684l-38.323-38.323-.454-.449v-15.118l-13.568-13.573a8.29 8.29 0 0 1-4.7 1.456c-4.599 0-8.33-3.733-8.33-8.333a8.332 8.332 0 0 1 8.33-8.333 8.335 8.335 0 0 1 8.336 8.333c0 1.75-.545 3.364-1.463 4.702l14.024 14.034.454.451v15.099l36.326 36.326 2 2 .449.448v29.244l-.45.45-1.999 1.996-35.686 35.684-1.847 1.85v50.234l5.493 5.495zM300.826-28.81h-.01v-.005a6.76 6.76 0 0 0-4.792 1.994 6.765 6.765 0 0 0-1.99 4.779h.002v.038h-.002c0 1.87.765 3.57 1.994 4.793a6.758 6.758 0 0 0 4.772 1.99v-.005h.038v.005a6.73 6.73 0 0 0 4.798-2l.005.008a6.78 6.78 0 0 0 1.985-4.776h-.005v-.037h.005a6.761 6.761 0 0 0-1.992-4.797 6.84 6.84 0 0 0-1.637-1.208 6.75 6.75 0 0 0-3.142-.784v.004h-.029zm71.45-219.098v125.025l-.45.45-17.54 17.54-6.507 6.51-25.25 25.25-6.22 6.217v26.421l6.22 6.218 2.446 2.446.452.454v14.183l-.452.45-2.446 2.443-6.872 6.872-11.66 11.66-2.482 2.48v53.965l2.482 2.483 10.82 10.82V21.494l.444-.447 4.24-4.238a8.338 8.338 0 0 1 3.028-12.105 8.337 8.337 0 0 1 12.187 7.394c0 4.598-3.733 8.331-8.335 8.331a8.315 8.315 0 0 1-4.707-1.449l-3.788 3.789v58.639l-2.625-2.624-11.264-11.265-5.112-5.114-.45-.454V5.436l.45-.454 5.112-5.111 9.96-9.96 8.386-8.387V-30.1l-8.661-8.666-.452-.452v-28.98l.452-.45 8.847-8.849 25.25-25.245 6.508-6.512 14.91-14.91v-122.479l-4.071-4.066v123.226l-.447.442-10.392 10.395-6.508 6.51-25.25 25.248-18.532 18.535-.616.615v34.192a9.802 9.802 0 0 1 4.419 2.545 9.836 9.836 0 0 1 2.897 6.976h.005v.036h-.005a9.848 9.848 0 0 1-2.878 6.942v.01a9.93 9.93 0 0 1-3.822 2.37c-.99.332-2.053.518-3.159.518v.007h-.038v-.007a9.853 9.853 0 0 1-6.94-2.881 9.853 9.853 0 0 1-2.897-6.974h-.008v-.038h.008a9.827 9.827 0 0 1 2.88-6.945 9.832 9.832 0 0 1 6.457-2.883v-35.143l.452-.454 3.245-3.247 18.532-18.533 25.25-25.25 6.508-6.507 7.768-7.768v-129.355l2.62 2.615 7.144 7.145.457.459z" fill="#eeeeee"/><path d="M558.554 462.107a6.782 6.782 0 0 0 2 4.79l-.005.005a6.827 6.827 0 0 0 1.905 1.34 6.707 6.707 0 0 0 2.871.648v-.003h.037v.003a6.757 6.757 0 0 0 4.797-1.993 6.782 6.782 0 0 0 1.992-4.776h-.007v-.038h.007a6.783 6.783 0 0 0-1.994-4.798 6.78 6.78 0 0 0-4.781-1.99v.002H565.34v-.002a6.76 6.76 0 0 0-2.881.635l.046.046-.05.05-1.032 1.041-1.084 1.09-.307-.305a6.792 6.792 0 0 0-1.478 4.216h.005v.039h-.005zm-64.787-63.163a8.336 8.336 0 0 1 8.338 8.336c0 4.069-2.932 7.461-6.795 8.188v5.691l23.49 23.492h32.373l.451.452 5.218 5.215 3.354 3.35c.7-.43 1.459-.773 2.258-1.02a9.99 9.99 0 0 1 2.886-.424v-.005H565.376v.005a9.844 9.844 0 0 1 6.95 2.883 9.848 9.848 0 0 1 2.72 5.133c.114.597.174 1.212.177 1.843h.005v.038h-.005a9.854 9.854 0 0 1-2.883 6.942 9.862 9.862 0 0 1-6.979 2.9v.005h-.036v-.005a9.859 9.859 0 0 1-6.942-2.883h-.01a9.855 9.855 0 0 1-2.888-6.974h-.004v-.038h.004a9.835 9.835 0 0 1 1.357-4.986c.295-.497.635-.97 1.012-1.41l-1.012-1.01-4.317-4.317-2.617-2.613h-32.386l-.451-.449-24.393-24.395-.454-.449v-6.971a8.333 8.333 0 0 1-6.785-8.188c0-4.605 3.728-8.336 8.328-8.336M159.362 212.625l8.502 8.497.45.449V228.479a8.341 8.341 0 0 1 6.792 8.2 8.333 8.333 0 1 1-15.744-3.817 8.353 8.353 0 0 1 5.87-4.378v-5.633l-5.87-5.868-3.65-3.648-.452-.452v-37.277l.451-.457 3.651-3.65 7.57-7.573.454-.454h18.991l2.579-2.581 4.59-4.59 2.978-2.98 5.242-5.237 9.938-9.941.45-.452H238.833l30.507-30.507V-74.264l.449-.454 4.52-4.52 29.686-29.689 18.534-18.532 12.366-12.363v-81.074l-12.366-12.366-13.5-13.5h-8.994l3.96 3.963 18.534 18.534 3.67 3.67.45.452V-136.468l-.45.452-3.67 3.665-18.534 18.532-29.686 29.686-10.523 10.523v175.388l-.45.451-12.036 12.038-.452.449h-8.482a8.338 8.338 0 0 1-8.193 6.79c-4.595 0-8.33-3.731-8.33-8.329 0-4.607 3.735-8.34 8.33-8.34a8.335 8.335 0 0 1 8.193 6.798h7.205l11.134-11.134V-74.887l.449-.45 13.155-13.157 29.686-29.685 18.534-18.53 1.036-1.039v-81.117l-1.036-1.036-18.534-18.535-8.766-8.773-2.627-2.624H310.32l.446.444 11.764 11.769 14.99 14.99.445.444v83.651l-.444.444-14.99 14.993-18.535 18.532-29.686 29.69-1.886 1.887v181.45l-.451.452-31.408 31.41-.451.451h-26.68l-11.667 11.666-5.242 5.244-2.978 2.98-4.59 4.588-.845.847-.444.447H168.66l-9.299 9.299-1.021 1.021v34.737l1.021 1.022zM667.277 99.125V-67.276l-32.815-32.813-24.774-24.776-8.446-8.442-.45-.456V-211.793l.45-.454 8.446-8.446 21.128-21.128 1.092-1.09 1.091 1.09 1.463 1.465 24 24H677.773l.446.446 21.645 21.645h53.76l.447.442 14.582 14.585 9.064 9.067h16.71c.727-3.866 4.12-6.795 8.19-6.795a8.303 8.303 0 0 1 6.573 3.214 8.27 8.27 0 0 1 1.763 5.121c0 1.93-.657 3.707-1.763 5.12a8.311 8.311 0 0 1-6.573 3.206 8.333 8.333 0 0 1-8.19-6.785h-17.989l-.452-.452-7.333-7.336-16.316-16.318h-53.762l-.447-.444-21.645-21.645h-19.317l-.442-.444-22.263-22.268-2.554-2.552-22.22 22.217-5.814 5.817v75.477l5.814 5.814 24.774 24.774 35.445 35.447.451.452V97.845l7.539 7.54a8.302 8.302 0 0 1 4.706-1.448 8.336 8.336 0 0 1 8.338 8.335c0 4.6-3.733 8.33-8.338 8.33-4.6 0-8.33-3.73-8.33-8.33a8.28 8.28 0 0 1 1.446-4.701l-7.99-7.993-.452-.453z" fill="#eeeeee"/><path d="M785.803-67.067v-.005h.041v.005a6.77 6.77 0 0 0 4.793-1.993 6.778 6.778 0 0 0 1.994-4.776h-.007v-.038h.007a6.807 6.807 0 0 0-2.002-4.8 6.774 6.774 0 0 0-4.773-1.993v.005h-.039v-.005a6.776 6.776 0 0 0-4.793 1.995 6.797 6.797 0 0 0-1.99 4.783h.005v.037h-.005a6.791 6.791 0 0 0 1.997 4.792l-.002.008a6.788 6.788 0 0 0 4.774 1.985m-24.434 232.663h-13.334l-.447-.454-.51-.507-5.386-5.385-7.48-7.483-.45-.454v-36.83l-30.956-30.956-.451-.447V59.588l-25.608-25.61-.451-.451V-74.971l-18.943-18.942-2.632-2.63h18.395l.454.452 20.056 20.058.451.452v65.639l20.177 20.175 8.15-8.152v-13.993a8.335 8.335 0 0 1-6.44-8.12 8.334 8.334 0 0 1 6.44-8.119v-54.457l-27.59-27.587H641.07l-.449-.452-6.16-6.16-24.774-24.77-1.087-1.09-.449-.45v-55.621l.45-.452 1.086-1.089 6.928-6.925 2.63-2.632v59.422l15.216 15.215 11.211 11.216H705.77l.452.447 35.47 35.47 5.388 5.385 17.608 17.608h16.651a10.01 10.01 0 0 1-2.48-1.806h-.005a9.852 9.852 0 0 1-2.89-6.974h-.005v-.036h.005a9.87 9.87 0 0 1 9.854-9.85v-.002h.039v.003c2.47.01 4.72.922 6.442 2.417l13.751-13.754.452-.456h24.636l.46.456 6.565 6.568H881.237l.451.451L894.747-75l.451.452V-55.808l3.45 3.453a8.284 8.284 0 0 1 4.704-1.458 8.338 8.338 0 0 1 8.338 8.337c0 4.6-3.733 8.33-8.338 8.33-4.6 0-8.335-3.73-8.335-8.33 0-1.743.536-3.363 1.451-4.701l-3.902-3.902-.451-.452V-73.268l-12.156-12.158h-43.062l-.457-.456-6.565-6.566H807.77L794.283-78.96a9.846 9.846 0 0 1 1.417 5.086h.007v.038h-.007a9.821 9.821 0 0 1-2.883 6.942 9.823 9.823 0 0 1-6.973 2.896v.004H785.802v-.004a9.772 9.772 0 0 1-3.872-.8l.176.177 3.728 3.728 23.36 23.362 16.733 16.73.449.452V27.23l8.9 8.903.452.452v20.77l10.069 10.067 21.123 21.123h38.166l.471.594 2.287 2.92a8.299 8.299 0 0 1 3.851-.937 8.334 8.334 0 0 1 8.335 8.338c0 4.597-3.73 8.328-8.335 8.328a8.33 8.33 0 0 1-8.328-8.328c0-2.106.775-4.033 2.062-5.498l-1.828-2.333h-37.963l-.45-.454-19.391-19.392-12.701-12.699-.452-.446V37.844l-8.898-8.9-.451-.45V-19.07l-14.102-14.1-23.359-23.362-5.46-5.457H763.41l-.454-.452-15.876-15.876-5.387-5.39-37.2-37.2H644.394l-.45-.447-9.482-9.484-17.846-17.847-.452-.449V-202.394l-4.93 4.933v53.067l23.228 23.229 7.889 7.888h53.745l.45.452 28.485 28.486.446.441V-28.28c4.043.572 7.155 4.047 7.155 8.248 0 4.202-3.112 7.674-7.155 8.251V3.37l-.446.445-9.688 9.69-1.089 1.09-1.091-1.09L691.448-8.21l-.452-.45V-74.304l-19.157-19.16h-9.674l16.76 16.765.454.449V32.247l25.608 25.612.451.452V81.798l30.954 30.956.451.449v36.833l4.849 4.85 5.387 5.388 2.24 2.238h13.33l.451.452 5.554 5.554 13.174 13.174.452.451V239.066l3.554 3.552 9.688 9.695.454.454v33.498l13.217 13.218 23.495 23.492a8.302 8.302 0 0 1 4.704-1.45 8.334 8.334 0 0 1 8.335 8.337c0 4.6-3.73 8.33-8.335 8.33-4.596 0-8.329-3.73-8.329-8.33 0-1.746.532-3.369 1.447-4.704l-21.317-21.316-15.85-15.848-.449-.449v-33.503l-7.06-7.063-6.186-6.184-.45-.449v-56.925l-10.544-10.543-7.285-7.282zM152.564-101.995a6.772 6.772 0 0 0 1.994 4.793 6.776 6.776 0 0 0 4.776 1.992v-.005h.037v.005a6.79 6.79 0 0 0 4.8-2l.002.003a6.764 6.764 0 0 0 1.988-4.771h-.005v-.041h.005a6.778 6.778 0 0 0-1.993-4.796 6.806 6.806 0 0 0-4.78-1.99v.008h-.04v-.007a6.762 6.762 0 0 0-4.792 1.992 6.782 6.782 0 0 0-1.992 4.778h.004v.039h-.004zM16.349-26.36c1.745 0 3.368.541 4.708 1.459l7.024-7.022 1.104-1.106v-19.097l.461-.457 15.205-15.205.45-.451h43.238l7.788-7.785 10.807-10.81 16.497-16.49.45-.45h25.575a9.854 9.854 0 0 1 9.693-8.103v-.007h.038v.007a9.844 9.844 0 0 1 6.95 2.883 9.847 9.847 0 0 1 2.895 6.974h.007v.041h-.007a9.834 9.834 0 0 1-2.886 6.942v.007a9.849 9.849 0 0 1-6.975 2.89v.005H159.334v-.004a9.85 9.85 0 0 1-6.942-2.881 9.845 9.845 0 0 1-2.806-5.672h-24.228l-18.224 18.22L96.327-71.66l-6.056 6.054-.454.451H46.568l-14.3 14.295v19.097l-.458.454-3.729 3.729-4.85 4.85a8.282 8.282 0 0 1 1.453 4.707c0 4.597-3.73 8.33-8.335 8.33-4.6 0-8.333-3.733-8.333-8.33a8.335 8.335 0 0 1 8.333-8.336" fill="#eeeeee"/><path d="M34.734 55.483v-2.861a6.75 6.75 0 0 0-1.796-3.15 6.75 6.75 0 0 0-4.784-1.991v.002H28.118v-.002h-.036a6.76 6.76 0 0 0-4.757 1.992 6.806 6.806 0 0 0-1.99 4.78h.008v.039h-.008a6.769 6.769 0 0 0 1.995 4.791 6.774 6.774 0 0 0 4.752 1.992l.022.003v-.01h.036v.01a6.793 6.793 0 0 0 4.798-1.995v-.01a6.807 6.807 0 0 0 1.89-3.59h-.094zM286.6-220.467v84.708l-.45.451-11.84 11.844-.952.951-.444.444h-47.27l-23.878 23.874-5.242 5.245-2.977 2.98-4.588 4.585-26.182 26.182-.452.447h-24.832L125.99-47.253 107.135-28.4 96.327-17.592l-8.256 8.254V31.182l-.444.444-23.405 23.405-.452.452H37.934a9.862 9.862 0 0 1-2.813 5.773l-.005-.002a9.854 9.854 0 0 1-6.976 2.89v.01h-.036v-.01h-.022a9.835 9.835 0 0 1-6.92-2.878 9.868 9.868 0 0 1-2.898-6.974h-.005v-.038h.005a9.832 9.832 0 0 1 2.885-6.947 9.838 9.838 0 0 1 6.933-2.9h.036v-.003H28.154v.003a9.875 9.875 0 0 1 6.95 2.883 9.86 9.86 0 0 1 2.726 5.112h24.665L85 29.892V-10.628l.447-.444 10.88-10.878 10.808-10.81 18.856-18.856 9.772-9.768.45-.451H161.043l27.914-27.911 4.588-4.588 2.977-2.98 5.242-5.24 22.142-22.14.445-.448h47.271l2.685-2.685 9.207-9.21v-82.153l-9.202-9.207-.005.004-15.994 16-.454.449h-32.067l-13.09 13.092-.458.459h-33.217l-18.317 18.317a8.3 8.3 0 0 1 1.415 4.651 8.296 8.296 0 0 1-2.765 6.191 8.307 8.307 0 0 1-5.57 2.132c-1.722 0-3.32-.519-4.646-1.41l-6.058 6.063-5.33 5.327-.451.45H129.449a8.316 8.316 0 0 1-3.458 5.316 8.297 8.297 0 0 1-4.74 1.473 8.33 8.33 0 0 1-8.328-8.33c0-4.603 3.73-8.333 8.328-8.333 1.76 0 3.393.543 4.74 1.477a8.337 8.337 0 0 1 3.458 5.313h6.58l7.058-7.054 3.863-3.863a8.312 8.312 0 0 1-1.495-4.752 8.335 8.335 0 0 1 13.09-6.848l.816-.814 17.941-17.936.45-.451H210.978l13.093-13.095.456-.456h32.054l16.64-16.644 1.086-1.087.003-.005 1.091 1.092 10.748 10.745.449.456z" fill="#eeeeee"/><path d="M204.684 49.61v-.034a7.23 7.23 0 0 0-2.917-5.483 7.23 7.23 0 0 0-5.242-1.357 7.226 7.226 0 0 0-6.276 6.84l-.002.034c-.005.1-.005.196-.005.292a7.21 7.21 0 0 0 3.303 6.064 7.231 7.231 0 0 0 3.914 1.159 7.2 7.2 0 0 0 4.308-1.42 7.206 7.206 0 0 0 2.917-6.095M322.53-303.872l-18.535 18.532-17.547 17.55v26.21l17.547 17.548 8.441 8.44.447.45V-135.892l-.432.447-8.456 8.748-29.688 30.722-32.584 33.713V-7.36l-.449.45L229.02 5.346V40.8l-.416.452-8.676 9.371-.463.497H207.229a9.842 9.842 0 0 1-2.808 5.735 9.823 9.823 0 0 1-6.978 2.9v.007h-.04v-.007a9.884 9.884 0 0 1-3.859-.794 9.86 9.86 0 0 1-5.896-7.84h-5.623L159.36 73.78l-2.965 2.968-.452.45H133.46a8.349 8.349 0 0 1-8.198 6.79c-4.597 0-8.328-3.736-8.328-8.331 0-4.605 3.73-8.338 8.328-8.338a8.345 8.345 0 0 1 8.2 6.8h21.205l4.695-4.699 20.935-20.933.449-.446H187.743a9.836 9.836 0 0 1 2.704-5.126 9.942 9.942 0 0 1 3.098-2.104 9.89 9.89 0 0 1 2.98-.758c.292-.024.591-.039.893-.039v-.004h.039v.004a9.935 9.935 0 0 1 4.31.998 9.777 9.777 0 0 1 2.64 1.888h.009a9.873 9.873 0 0 1 2.719 5.14h11.006l7.797-8.424V4.087l.449-.454L238.64-8.624V-63.494l.435-.45 35.232-36.456 29.688-30.721 5.81-6.008v-76.733l-5.81-5.807-20.18-20.179-.45-.454V-269.068l.45-.451 20.18-20.182 18.535-18.532 20.362-20.365V-475.95l-16.931-16.929-.459-.456V-567.921h3.084v73.32l16.933 16.927.46.459v149.894l-.452.45-22.997 22.999zM374.198-272.305a6.79 6.79 0 0 0-1.994 4.78h.007v.039h-.007a6.776 6.776 0 0 0 2 4.788l-.003.005a6.794 6.794 0 0 0 4.776 1.99v-.007h.036v.007a6.792 6.792 0 0 0 4.796-1.995 6.79 6.79 0 0 0 1.992-4.776h-.008V-267.51h.008a6.785 6.785 0 0 0-1.992-4.795h-.005a6.776 6.776 0 0 0-4.776-1.995v.007h-.039v-.007a6.755 6.755 0 0 0-4.79 1.995m4.79-5.074h.039v.005a9.837 9.837 0 0 1 6.951 2.888 9.837 9.837 0 0 1 2.893 6.976h.007V-267.474h-.007a9.848 9.848 0 0 1-1.152 4.61 9.806 9.806 0 0 1-1.729 2.33 9.873 9.873 0 0 1-5.435 2.782V21.094l-.454.449-1.099 1.098-24.718 24.714-6.505 6.508-.488.487v112.458l-.444.449-9.357 9.357-14.961 14.958-18.535 18.533-28.06 28.06-1.628 1.628-2.417 2.422v6.348a8.335 8.335 0 0 1 6.792 8.195 8.321 8.321 0 0 1-4.375 7.331 8.33 8.33 0 0 1-12.288-7.33 8.336 8.336 0 0 1 6.787-8.196v-7.628l.454-.45 5.047-5.05 2.762-2.763 26.926-26.928 18.535-18.532 12.78-12.779 8.91-8.912V53.06l.447-.444 3.113-3.113 6.505-6.507 23.188-23.183v-277.562a9.812 9.812 0 0 1-5.44-2.767h-.005a9.853 9.853 0 0 1-2.89-6.97h-.008v-.039h.007a9.848 9.848 0 0 1 2.88-6.95 9.84 9.84 0 0 1 6.972-2.9v-.005z" fill="#eeeeee"/><path d="M126.875-124.842l.45-.45H186.091l2.864-2.863 4.59-4.588 2.977-2.98 5.242-5.242 4.63-4.626.448-.45h50.742l8.813-8.81v-37.582l2.632 2.632 5.279 5.278 2.9 2.896.451.451V-145.239l-.451.45-2.9 2.897-10.4 10.402-.45.452H214.1l-12.334 12.331-5.242 5.24-2.977 2.977-4.59 4.593L159.362-76.3l-5.718 5.716-.452.449H126.571l-.58.58L107.135-50.7 96.328-39.893 75.255-18.82V25.453l-.452.449-2.414 2.42a8.273 8.273 0 0 1 1.456 4.705c0 4.598-3.733 8.333-8.336 8.333-4.602 0-8.33-3.735-8.33-8.333 0-4.602 3.728-8.335 8.33-8.335 1.741 0 3.364.54 4.704 1.456l1.96-1.96V-20.098l.45-.452L96.328-44.25l10.807-10.813 17.705-17.704.449-.444.637-.003H151.915l7.447-7.449 29.594-29.596 4.59-4.586 2.977-2.98 5.242-5.244 10.6-10.6.452-.45H262.182l12.127-12.13.268-.268v-33.38l-.268-.266-4.827-4.827v31.42l-.452.448-9.714 9.715-.451.449H208.12l-6.356 6.357-5.242 5.24-2.977 2.978-4.59 4.59-1.135 1.132-.452.454H128.607l-2.616 2.615-18.856 18.854-10.807 10.808-4.052 4.056-.454.45h-36.07v-20.518l-14.647-14.642H18.725l-.451-.452-5.24-5.237a8.326 8.326 0 0 1-4.703 1.449c-4.596 0-8.331-3.733-8.331-8.33 0-4.606 3.735-8.339 8.33-8.339a8.338 8.338 0 0 1 6.885 13.04l4.788 4.788H42.37l.451.451 15.555 15.55.46.46v18.698h31.706l5.786-5.785 10.807-10.808 18.856-18.856.884-.886zM464.72 170.6v.003H464.68v-.002a6.761 6.761 0 0 0-4.788 1.992 6.69 6.69 0 0 0-1.272 1.76 6.715 6.715 0 0 0-.722 3.023h.005v.039h-.005c0 1.086.26 2.117.722 3.028a6.639 6.639 0 0 0 1.272 1.763 6.776 6.776 0 0 0 4.776 1.992v-.005h.037v.005a6.797 6.797 0 0 0 4.8-1.995 6.78 6.78 0 0 0 1.992-4.774h-.007v-.036h.007a6.791 6.791 0 0 0-1.997-4.8h-.002a6.768 6.768 0 0 0-4.776-1.992m12.348-307.935l-8.171 8.164V59.322l.241.239 20.027 20.027.452.449V115.517l-.452.452-22.936 22.94v28.736a9.845 9.845 0 0 1 5.442 2.77l-.002.005a9.84 9.84 0 0 1 2.893 6.973h.007v.036h-.007a9.84 9.84 0 0 1-2.881 6.945l-.007.007a9.881 9.881 0 0 1-6.971 2.888v.005h-.037v-.005a9.811 9.811 0 0 1-6.048-2.093 10.147 10.147 0 0 1-1.543-1.502 9.848 9.848 0 0 1-2.25-6.26h-.006v-.038h.005a9.838 9.838 0 0 1 3.794-7.756 9.788 9.788 0 0 1 4.527-1.972V137.629l.452-.45 2.516-2.515 20.425-20.426V81.317l-17.566-17.564-2.7-2.698-.447-.444V-130.46l.447-.444 10.977-10.977 13.966-13.96V-567.92h3.08v413.363l-.452.447-16.775 16.777z" fill="#eeeeee"/><path d="M459.693 435.006h-.014V435a6.719 6.719 0 0 0-2.6.522 6.822 6.822 0 0 0-4.183 6.256h.007V441.815h-.007a6.768 6.768 0 0 0 1.992 4.79 6.822 6.822 0 0 0 3.73 1.908c.339.053.691.085 1.046.085v-.005H459.705v.005a6.79 6.79 0 0 0 4.796-1.997l.002.002a6.783 6.783 0 0 0 1.987-4.771h-.004v-.039h.004a6.771 6.771 0 0 0-1.992-4.798h-.007a6.766 6.766 0 0 0-4.774-1.994v.005h-.024zm91.313-83.914a6.76 6.76 0 0 0-.467-2.456l-.103.104-.244-.239-.848-.843-1.089-1.084.515-.512a6.774 6.774 0 0 0-4.54-1.758v.005h-.039v-.005a6.757 6.757 0 0 0-4.788 1.993 6.789 6.789 0 0 0-1.992 4.783h.005V351.116h-.005a6.768 6.768 0 0 0 1.992 4.793 6.781 6.781 0 0 0 4.774 1.99v-.005h.041v.005a6.782 6.782 0 0 0 4.795-1.992v-.007a6.75 6.75 0 0 0 1.993-4.767H551v-.041h.005zm-49.69-477.632v110.222l12.912 12.916.447.446V153.043l32.484 32.486 9.683 9.685 3.153 3.154.452.454.002.637V338.724l-.454.45-3.153 3.155-3.994 3.996a9.896 9.896 0 0 1 1.229 4.767h.007v.041h-.007a9.839 9.839 0 0 1-2.883 6.95l-.003-.005a9.856 9.856 0 0 1-4.032 2.44 9.793 9.793 0 0 1-2.941.452v.008H544.176v-.008a9.824 9.824 0 0 1-6.939-2.88 9.858 9.858 0 0 1-2.897-6.974h-.008V351.08h.008a9.834 9.834 0 0 1 2.88-6.95 9.856 9.856 0 0 1 6.971-2.897v-.005h.039v.005a9.854 9.854 0 0 1 6.713 2.654l5.899-5.907.524-.521v-137.36l-.524-.524-9.683-9.687-35.111-35.107-.445-.451V-1.666l-12.92-12.921-.45-.45v-112.78l.45-.452 25.271-25.269V-526.38l-6.62 6.626.014 364.795v.647l-.447.447-24.605 24.603v113.792l14.58 14.582.451.454V162.78l37.304 37.294.447.449v46.149l-.447.449-11.2 11.201-1.088 1.094-1.087-1.089-10.187-10.182-.45-.45v-14.91l-28.951-28.952-.444-.442v-68.742l-10.956 10.95V194.828l-.451.45-15.251 15.255v18.146l20.607 20.6.451.45v68.587l-.459.454-13.91 13.908v63.112l-.45.449-9.569 9.571v26.238a9.852 9.852 0 0 1 5.438 2.767l-.002.002a9.863 9.863 0 0 1 2.89 6.976h.01v.039h-.01a9.848 9.848 0 0 1-2.88 6.942v.005a9.866 9.866 0 0 1-6.977 2.89v.005h-.041v-.005c-.352 0-.705-.021-1.045-.06a9.753 9.753 0 0 1-1.54-.29 9.866 9.866 0 0 1-7.251-9.504h-.006V441.78h.005a9.854 9.854 0 0 1 2.88-6.95 9.895 9.895 0 0 1 5.443-2.784V404.53l.452-.451.017-.014 9.554-9.555v-63.097l.457-.46 13.91-13.905V251.01l-20.604-20.602-.451-.45V209.254l.451-.451 15.249-15.251V144.32l.454-.452 14.029-14.024 2.625-2.627v74.878l28.956 28.957.45.451v14.91l8.649 8.647 9.648-9.656v-43.603L504.7 164.507l-.454-.449V.826L489.664-13.76l-.447-.449v-116.335l.447-.452 24.61-24.607-.012-364.798-.003-.642.447-.447 9.7-9.702 2.632-2.632v381.565l-.452.447-25.27 25.271zM356.263-130.657l-1.978 1.975-6.507 6.507-25.248 25.248-18.534 18.53L288.498-62.9V78.082l15.498 15.495 7.47 7.468.45.452v51.514l-.45.449-7.47 7.468-2.91 2.908-.452.454h-66.117l-27.752 27.739-4.117 4.124v7.899a8.332 8.332 0 0 1 6.795 8.195c0 4.375-3.38 7.968-7.676 8.304-.218.017-.44.024-.662.024a8.27 8.27 0 0 1-4.58-1.374 8.367 8.367 0 0 1-2.98-3.46 8.291 8.291 0 0 1-.768-3.494c0-1.25.275-2.439.768-3.501a8.374 8.374 0 0 1 2.98-3.463 8.231 8.231 0 0 1 3.04-1.231v-9.181l.451-.45 1.75-1.75 6.05-6.048 24.972-24.963.449-.452h66.118l4.64-4.643 4.842-4.836v-48.957l-4.841-4.837-18.127-18.124-.45-.452V-64.18l.45-.451 18.127-18.127 18.534-18.532 25.248-25.243 5.853-5.855v-435.533h3.084v436.172l-.005.64-.447.452z" fill="#eeeeee"/><path d="M329.33-270.961a6.78 6.78 0 0 0-1.993-4.796 6.803 6.803 0 0 0-4.786-1.997v.007H322.513v-.007a6.777 6.777 0 0 0-4.788 1.997 6.78 6.78 0 0 0-1.993 4.784h.005v.038h-.005a6.781 6.781 0 0 0 1.993 4.788 6.779 6.779 0 0 0 4.773 1.992v-.007h.042v.007a6.757 6.757 0 0 0 4.35-1.596l-.224-.227 1.089-1.091.855-.852a6.7 6.7 0 0 0 .72-3.002h-.008v-.038h.007zm-135.018 462.66a6.79 6.79 0 0 0-.766-3.136 6.561 6.561 0 0 0-.437-.72l-.784-.787.075-.072-.078-.08a6.824 6.824 0 0 0-3.366-1.838 6.69 6.69 0 0 0-1.417-.152v.003h-.039v-.003a6.797 6.797 0 0 0-6.783 6.773h.005v.039h-.005a6.796 6.796 0 0 0 6.768 6.78v-.005H187.528v.005a6.766 6.766 0 0 0 4.795-1.992c.488-.488.9-1.048 1.224-1.661a6.75 6.75 0 0 0 .766-3.113h-.002v-.041h.002zm153.306-323.664l-25.088 25.086-18.535 18.532-22.768 22.773V81.681l22.377 22.384.39.393.061.058V146.804l-.06.058-.399.398-9.542 9.54-.454.452h-67.11l-24.724 24.726-5.242 5.24-.14.14c.048.099.096.195.14.294.555 1.232.86 2.61.862 4.047h.005V191.741h-.005a9.812 9.812 0 0 1-2.883 6.94 9.849 9.849 0 0 1-6.976 2.898v.004H187.486v-.005a9.86 9.86 0 0 1-9.837-9.852h-.005v-.039h.004a9.852 9.852 0 0 1 9.852-9.844v-.005h.039v.005a9.803 9.803 0 0 1 6.947 2.883l.087.082 1.95-1.951.252-.254 4.991-4.99 22.995-22.993.451-.449.638-.002h66.489l8.633-8.633V105.78l-22.374-22.384-.452-.449V-66.857l.452-.448 25.397-25.402 18.535-18.533 22.456-22.454V-247.65l-15.908-15.913a9.825 9.825 0 0 1-6.539 2.48v.005h-.041v-.005a9.822 9.822 0 0 1-6.94-2.886 9.832 9.832 0 0 1-2.897-6.966h-.005v-.038h.005a9.86 9.86 0 0 1 2.883-6.952 9.846 9.846 0 0 1 6.969-2.898v-.005H322.55v.005a9.836 9.836 0 0 1 6.952 2.886 9.856 9.856 0 0 1 2.898 6.976h.005v.038h-.005a9.89 9.89 0 0 1-1.355 4.967l16.572 16.577.162.161.287.29v116.514l-.287.288-.162.161zM450.78-542.531a6.784 6.784 0 0 0-1.997-4.796 6.77 6.77 0 0 0-4.781-1.994v.002h-.039v-.002a7 7 0 0 0-1.32.13 6.791 6.791 0 0 0-3.468 1.864 6.77 6.77 0 0 0-1.994 4.781h.007v.041h-.007a6.773 6.773 0 0 0 1.994 4.788c.908.906 2.147 1.478 3.467 1.71 2.183.381 4.603-.176 6.14-1.717a6.766 6.766 0 0 0 1.998-4.769h-.007v-.038h.007zm-12.576 179.705a5.668 5.668 0 0 0 5.668 5.667 5.667 5.667 0 1 0-1.23-11.2 5.666 5.666 0 0 0-4.438 5.533m12.762-172.715a9.861 9.861 0 0 1-5.682 2.803v161.755a8.34 8.34 0 0 1 6.792 8.193c0 4.069-2.928 7.461-6.792 8.188v170.984l-.451.446-2.19 2.188-6.904 6.904-2.939 2.936-.71.712-1.535 1.536-9.393 9.39-.882.884V-40.55l.882.884 9.393 9.39 1.535 1.537.71.71 2.939 2.936 6.903 6.9 2.434 2.437.452.452v76.587l-.452.452-2.434 2.434-6.903 6.903-2.939 2.937-.71.707-1.535 1.54-2.084 2.082v155.72l2.084 2.084 1.535 1.541.71.71 2.939 2.934 6.903 6.903 3.654 3.656a8.25 8.25 0 0 1 4.704-1.454 8.312 8.312 0 0 1 6.077 2.63 8.285 8.285 0 0 1 2.258 5.708 8.26 8.26 0 0 1-2.258 5.696 8.33 8.33 0 0 1-14.406-5.696c0-1.746.532-3.361 1.444-4.704l-1.473-1.475-6.903-6.901-2.939-2.936-.71-.713-1.535-1.538-4.718-4.713-.45-.452V77.06l.45-.45 4.718-4.715 1.535-1.538.71-.71 2.939-2.936 6.705-6.708v-74.029l-6.705-6.707-2.939-2.934-.71-.713-1.535-1.538-9.393-9.388-3.516-3.516-.45-.449v-120.628l.45-.454 3.516-3.511 9.393-9.39 1.535-1.539.71-.71 2.939-2.936 6.464-6.462v-169.698a8.336 8.336 0 0 1-6.464-10.511 8.328 8.328 0 0 1 6.464-5.873V-532.81a9.824 9.824 0 0 1-5.194-2.729 9.826 9.826 0 0 1-2.897-6.966h-.008v-.041h.008a9.845 9.845 0 0 1 1.627-5.406 9.915 9.915 0 0 1 1.253-1.543 9.872 9.872 0 0 1 6.971-2.898v-.005h.039v.005a9.839 9.839 0 0 1 6.95 2.883 9.856 9.856 0 0 1 2.897 6.979h.005v.038h-.005a9.84 9.84 0 0 1-2.883 6.952M577.348 277.953a6.764 6.764 0 0 0-1.992-4.795l-.04-.039a6.767 6.767 0 0 0-4.74-1.956v.008h-.039v-.008a6.79 6.79 0 0 0-5.185 2.422 6.78 6.78 0 0 0-1.598 4.354h.007v.041h-.007a6.758 6.758 0 0 0 2 4.79l-.003.003a6.776 6.776 0 0 0 4.774 1.987v-.004H570.56v.004a6.76 6.76 0 0 0 4.486-1.702 6.778 6.778 0 0 0 2.301-5.066h-.004v-.039h.004zm-15.49-114.546a6.794 6.794 0 0 0 3.494 5.926c.974.54 2.09.852 3.272.857v-.005h.039v.005a6.788 6.788 0 0 0 4.8-1.997 6.885 6.885 0 0 0 1.584-2.492 6.761 6.761 0 0 0 .408-2.281h-.005v-.039h.005a6.815 6.815 0 0 0-1.992-4.795 6.801 6.801 0 0 0-4.783-1.99v.005h-.039v-.005a6.89 6.89 0 0 0-3.289.816 6.63 6.63 0 0 0-2.897 3.13 6.957 6.957 0 0 0-.597 2.827h.003v.038h-.003zm-5.015-122.12l5.155 5.157.45.45v34.981l-.45.451-5.155 5.155-8.753 8.751v45.777l8.753 8.753 5.25 5.252a9.727 9.727 0 0 1 3.26-1.927 9.892 9.892 0 0 1 3.288-.563v-.005h.039v.005a9.84 9.84 0 0 1 6.95 2.883 9.848 9.848 0 0 1 2.894 6.974h.005v.039h-.005a9.854 9.854 0 0 1-2.88 6.951c-.194.191-.392.372-.597.546a9.866 9.866 0 0 1-6.384 2.347v.002h-.039v-.002a9.869 9.869 0 0 1-6.937-2.885 9.832 9.832 0 0 1-2.902-6.972h-.003v-.038h.003a9.874 9.874 0 0 1 1.342-4.962l-3.284-3.284-9.685-9.683-1.702-1.702-.45-.45V94.956l.45-.452 1.702-1.7 9.685-9.683 2.524-2.523V48.171l-2.524-2.523-9.685-9.683-19.068-19.071-.447-.444V-7.327L514.72-20.255l-.45-.45v-103.378l-4.935 4.93v101.834l12.578 12.578.451.449v20.486l24.794 24.793 6.493 6.493.45.45V79.355l-.45.452-6.493 6.49-7.43 7.43v60.373l7.43 7.43 9.685 9.683 5.612 5.612 2.897 2.9.65.647 9.045 9.045 6.744 6.744 5.598 5.602.453.45V262.774l-.453.45-5.598 5.596-3.293 3.296a9.819 9.819 0 0 1 1.922 5.836h.005v.039h-.005a9.83 9.83 0 0 1-2.88 6.942 9.917 9.917 0 0 1-2.493 1.816 9.828 9.828 0 0 1-4.486 1.082v.005H570.525v-.005a9.84 9.84 0 0 1-6.945-2.883h-.007a9.833 9.833 0 0 1-2.888-6.969h-.005v-.041h.005a9.849 9.849 0 0 1 1.77-5.621c.33-.474.703-.918 1.113-1.326a9.811 9.811 0 0 1 6.969-2.9v-.005h.038v.005a9.853 9.853 0 0 1 5.733 1.852l5.483-5.481 2.968-2.97v-58l-2.968-2.968-6.744-6.746-8.494-8.492-1.2-1.2-2.898-2.9-5.612-5.612-9.685-9.685-10.057-10.057-.45-.45V92.449l.45-.449 10.057-10.06 3.861-3.86v-28.87l-3.86-3.863-27.426-27.426-.45-.449V-3.01l-12.578-12.578-.451-.454V-120.412l.456-.46 8.017-8.014 2.625-2.622v109.524L530.27-9.066l.444.45v23.774l16.444 16.446 9.685 9.683z" fill="#eeeeee"/><path d="M89.528 172.268a6.77 6.77 0 0 0 1.995 4.79 6.78 6.78 0 0 0 4.774 1.993v-.008h.039v.008a6.79 6.79 0 0 0 4.797-1.993v-.01a6.763 6.763 0 0 0 1.992-4.768h-.005v-.037h.005a6.791 6.791 0 0 0-1.992-4.797 6.787 6.787 0 0 0-4.783-1.99v.005h-.039v-.005a6.76 6.76 0 0 0-4.788 1.99 6.785 6.785 0 0 0-1.995 4.783h.005v.039h-.005zm70.513 114.884a6.784 6.784 0 0 0-1.99 4.781h.005v.038h-.005a6.784 6.784 0 0 0 1.995 4.791 6.787 6.787 0 0 0 4.778 1.992v-.007h.036v.007a6.802 6.802 0 0 0 6.788-6.768h-.005v-.041h.005a6.77 6.77 0 0 0-1.992-4.796 6.787 6.787 0 0 0-3.946-1.94h-1.731a6.813 6.813 0 0 0-3.938 1.943M89.34 165.28a9.85 9.85 0 0 1 6.971-2.895v-.005h.039v.005a9.866 9.866 0 0 1 5.638 1.777l5.148-5.15.676-.68.452-.448h28.104l6.717-6.715 7.824-7.826.454-.452H200.268l-2.629 2.632-1.115 1.116-2.978 2.977-4.59 4.59-5.474 5.472-.451.451h-16.137l-7.532 7.53-7.746 7.745v38.908l-.449.449-7.164 7.166v25.016l2.245 2.248 13.114 13.117 6.088 6.09.449.45v13.291a9.848 9.848 0 0 1 5.923 2.83 9.855 9.855 0 0 1 2.897 6.976h.008v.041h-.008a9.85 9.85 0 0 1-2.88 6.942l-.01.007a9.851 9.851 0 0 1-6.969 2.888v.005h-.036v-.005a9.832 9.832 0 0 1-6.944-2.883 9.825 9.825 0 0 1-2.9-6.969h-.003v-.038h.003a9.836 9.836 0 0 1 2.885-6.947 9.827 9.827 0 0 1 4.952-2.69v-12.184l-3.455-3.456-7.77-7.772-8.507-8.51-1.717-1.714-.449-.452V220.648l.45-.45 1.716-1.716 5.45-5.45v-38.905l.452-.451 10.375-10.379 5.8-5.802.45-.45h16.156l7.188-7.185 3.89-3.885H152.64l-9.555 9.554-4.979 4.98-.447.446H109.541l-2.405 2.405-2.934 2.934a9.834 9.834 0 0 1 1.995 5.95h.007v.036h-.007a9.838 9.838 0 0 1-2.886 6.952v-.005a9.855 9.855 0 0 1-6.976 2.893v.004h-.038v-.004a9.834 9.834 0 0 1-6.94-2.881 9.85 9.85 0 0 1-2.9-6.971h-.005v-.039h.005a9.85 9.85 0 0 1 2.883-6.95M422.05-514.935a6.752 6.752 0 0 0-1.995-4.795 6.766 6.766 0 0 0-3.267-1.811c-.254-.295-3.32-.14-3.082 0a6.776 6.776 0 0 0-3.262 1.811 6.782 6.782 0 0 0-1.992 4.778h.005v.041h-.005a6.797 6.797 0 0 0 6.768 6.78v-.004h.037v.005a6.775 6.775 0 0 0 4.798-1.99v-.007c.43-.43.804-.916 1.106-1.447.562-.985.886-2.12.888-3.322h-.005v-.039h.005zm.185 6.986v-.003a9.835 9.835 0 0 1-6.978 2.893v.007h-.037v-.007c-.685 0-1.354-.07-2.001-.208a9.86 9.86 0 0 1-4.94-2.673 9.853 9.853 0 0 1-2.898-6.97h-.005V-514.953h.005a9.839 9.839 0 0 1 2.883-6.944 9.858 9.858 0 0 1 5.442-2.775v-9.463l-.487-.488-8.66-8.656-6.478-6.483v92.72l6.479 6.48 6.874 6.877 1.785 1.782 1.787 1.79.454.454v26.689l-.454.449-1.787 1.79-3.61 3.607-5.05 5.051-6.475 6.476v97.141l5.81 5.808.666.666 8.659 8.659.451.45.452.448v125.142l-.452.449-.451.449-8.66 8.659-3.554 3.56a8.288 8.288 0 0 1 2.222 5.657c0 4.597-3.733 8.33-8.338 8.33a8.319 8.319 0 0 1-7.169-4.098 8.268 8.268 0 0 1-1.161-4.232c0-1.55.425-3 1.161-4.24a8.319 8.319 0 0 1 10.779-3.272l6.06-6.064 6.48-6.478v-122.582l-6.48-6.476-.87-.877-8.237-8.231-.45-.447v-99.696l.45-.451 9.108-9.108 5.276-5.281 2.54-2.54v-24.132l-1.147-1.147-6.67-6.67-9.107-9.108-.445-.442v-101.444l2.628 2.627 6.925 6.926 8.659 8.661 3.117 3.112.452.457v10.74a9.89 9.89 0 0 1 5.435 2.76 9.832 9.832 0 0 1 2.898 6.976h.004v.039h-.004a9.826 9.826 0 0 1-2.886 6.947M547.158-405.16a5.664 5.664 0 0 0-10.624 2.74 5.663 5.663 0 0 0 5.662 5.665 5.66 5.66 0 0 0 5.667-5.665 5.63 5.63 0 0 0-.705-2.74m3.67 395.019a6.017 6.017 0 0 0 6.015 6.015h.003a6.019 6.019 0 0 0 5.609-8.188 6.025 6.025 0 0 0-5.61-3.844h-.002a6.02 6.02 0 0 0-6.015 6.017m28.295 337.355a6.78 6.78 0 0 0-.946-3.453l-1.995-1.992.08-.082a6.763 6.763 0 0 0-3.912-1.263v.007H572.314v-.007a6.794 6.794 0 0 0-6.785 6.775h.004v.04h-.004a6.77 6.77 0 0 0 1.994 4.79 6.76 6.76 0 0 0 4.774 1.992v-.005h.041v.005a6.73 6.73 0 0 0 2.71-.57 6.743 6.743 0 0 0 2.08-1.422 6.764 6.764 0 0 0 1.995-4.776h-.007v-.039h.007zm-31.965-723.138a8.259 8.259 0 0 1-3.424 1.494v344.474l3.424 3.419 9.685 9.685 1.147 1.15.454.45v16.78a8.31 8.31 0 0 1 4.01 1.978 8.309 8.309 0 0 1 2.785 6.21 8.305 8.305 0 0 1-2.784 6.21 8.36 8.36 0 0 1-4.01 1.983v25.608l4.01 3.948 2.897 2.849 1.749 1.721 7.946 7.821 1.637 1.611.464.454v35.647l4.643 4.649 11.694 11.694.585.584.449.452v85.889l15.169 15.17 1.091 1.09.452.449V261.77l-.452.451-1.091 1.087-16.203 16.207-1.296 1.294v29.312l-.452.451-9.946 9.946-1.248 1.246c.543.814.966 1.71 1.248 2.67.261.882.401 1.817.406 2.78h.002v.039h-.002a9.957 9.957 0 0 1-.406 2.767 9.823 9.823 0 0 1-2.482 4.175 9.831 9.831 0 0 1-4.262 2.513 9.859 9.859 0 0 1-2.71.384v.003H572.297v-.003a9.846 9.846 0 0 1-6.944-2.883 9.843 9.843 0 0 1-2.892-6.97h-.005v-.04h.005a9.855 9.855 0 0 1 2.878-6.946l.014-.013a9.851 9.851 0 0 1 6.962-2.887v-.005H572.35v.005a9.812 9.812 0 0 1 6.111 2.135l.404-.404 2.926-2.924 7.317-7.32v-29.308l.451-.452 3.926-3.926 14.662-14.664v-61.665l-14.662-14.662-1.598-1.596-.447-.452V96.226l-9.649-9.65-6.744-6.745-.531-.531-.45-.45V43.202l-6.78-6.672-1.934-1.903-2.897-2.849-5.612-5.525-1.019-1-.463-.453v-26.89a8.34 8.34 0 0 1-6.788-8.193 8.328 8.328 0 0 1 6.788-8.188v-15.5l-8.203-8.204-6.049-6.049-.444-.447V-394.43a8.333 8.333 0 0 1-6.795-8.19 8.333 8.333 0 0 1 6.795-8.193V-567.92h3.069v157.109c1.265.237 2.43.76 3.424 1.497a8.312 8.312 0 0 1 3.378 6.694 8.316 8.316 0 0 1-3.378 6.696" fill="#eeeeee"/><path d="M565.353-109.156l9.695 9.694 3.65 3.654.457.451v46.077l2.637 2.639 6.932 6.93.45.451V70.542l4.31 4.315 14.285 14.287.454.45v88.547l1.465 1.468 6.43 6.428.452.454v94.023l-.452.447-6.43 6.43-11.82 11.82v23.818l-.451.452-3.933 3.933-11.692 11.694-6.744 6.744-9.695 9.695-2.898 2.898-5.611 5.611-7.751 7.754a8.316 8.316 0 0 1-1.934 11.4 8.293 8.293 0 0 1-4.95 1.63c-4.598 0-8.331-3.731-8.331-8.329 0-4.605 3.733-8.338 8.33-8.338 1.751 0 3.364.536 4.704 1.454l.247-.246 9.685-9.688 5.611-5.61 2.898-2.897 9.695-9.694 6.744-6.745 11.692-11.691 1.301-1.304V297.93l.452-.449 14.451-14.451 3.803-3.799v-91.467l-3.803-3.795-4.097-4.098-.45-.452V90.873l-11.657-11.66-6.943-6.94-.449-.452v-109.8l-4.3-4.304-5.269-5.266-.454-.454v-46.074l-1.021-1.026-9.695-9.693-2.898-2.9-5.611-5.611-2.371-2.369-.45-.452V-567.92h3.081v450.515l5.351 5.351 2.898 2.898zM100.34 276.627c0 1.87.763 3.567 1.99 4.79a6.784 6.784 0 0 0 4.776 1.993v-.005h.039v.005a6.806 6.806 0 0 0 4.802-1.995 6.768 6.768 0 0 0 1.985-4.773h-.002v-.039h.002c0-1.231-.328-2.39-.906-3.39l-.697.698-1.09-1.087-1.09-1.091.77-.77a6.752 6.752 0 0 0-3.758-1.148v.005H107.12v-.005a6.76 6.76 0 0 0-4.79 1.992 6.77 6.77 0 0 0-1.99 4.781h.002v.039h-.002zm-.19-6.985a9.848 9.848 0 0 1 6.97-2.898v-.005H107.161v.005a9.828 9.828 0 0 1 5.962 2.014l.186-.184 12.682-12.684 6.778-6.775v-19.827l-6.778-6.78-3.707-3.71a8.333 8.333 0 1 1-4.699-15.215c4.605.001 8.34 3.732 8.34 8.336a8.278 8.278 0 0 1-1.456 4.707l1.522 1.52 9.41 9.41.449.452V250.392l-.45.452-9.41 9.407-10.737 10.738a9.853 9.853 0 0 1 1.753 5.614h.005v.039h-.005a9.842 9.842 0 0 1-2.883 6.942l-.008.007a9.867 9.867 0 0 1-6.97 2.89v.005h-.039v-.005a9.83 9.83 0 0 1-6.94-2.883 9.837 9.837 0 0 1-2.898-6.97h-.004v-.04h.004a9.842 9.842 0 0 1 2.881-6.946M189.131 126.177a6.779 6.779 0 0 0 2 4.786l-.003.005a6.809 6.809 0 0 0 4.772 1.99v-.005H195.94v.005c.193 0 .388-.012.584-.03a6.752 6.752 0 0 0 4.211-1.965v-.007a6.897 6.897 0 0 0 1.029-1.316 6.734 6.734 0 0 0 .966-3.45h-.008v-.039h.008a6.828 6.828 0 0 0-.966-3.482 6.807 6.807 0 0 0-1.029-1.314 6.775 6.775 0 0 0-4.211-1.97 6.456 6.456 0 0 0-.57-.022h-.039c-.835 0-1.632.15-2.37.428a6.807 6.807 0 0 0-2.425 1.564 6.797 6.797 0 0 0-1.99 4.781h.008v.041h-.008zM66.14 195.545c1.57 0 3.04.432 4.298 1.183l5.53-5.53V158.725l.446-.446 17.888-17.886.451-.449H106.591l.544-.546 18.856-18.853 8.166-8.166.45-.45h22.04l.45.45 2.264 2.264 9.18 9.176h17.804a9.834 9.834 0 0 1 2.598-4.631l.014-.015a9.868 9.868 0 0 1 4.588-2.593c.76-.19 1.553-.29 2.371-.29v-.002h.04v.002a9.82 9.82 0 0 1 6.947 2.883 9.866 9.866 0 0 1 2.897 6.979h.007v.038h-.007a9.844 9.844 0 0 1-2.883 6.95l-.005-.003c-.355.353-.74.681-1.147.978a9.832 9.832 0 0 1-5.824 1.913v.01H195.9v-.01a9.838 9.838 0 0 1-6.943-2.881h-.007a9.881 9.881 0 0 1-2.859-6.244h-18.19l-.637.002-.454-.451-7.449-7.45-3.994-3.996H135.886l-9.895 9.898-17.67 17.67-.452.452H96.027l-16.99 16.984v32.477l-.443.445-5.854 5.848a8.304 8.304 0 0 1 1.734 5.1c0 4.595-3.73 8.33-8.335 8.33-4.6 0-8.333-3.735-8.333-8.33a8.335 8.335 0 0 1 8.333-8.336M88.664 45.18c0 1.66.613 3.19 1.613 4.37l.1-.1 1.09 1.09.36.362a6.743 6.743 0 0 0 3.605 1.065v-.007h.039v.007c.29 0 .575-.022.855-.058a6.764 6.764 0 0 0 3.94-1.939v-.01a6.764 6.764 0 0 0 1.995-4.766h-.007v-.039h.007a6.783 6.783 0 0 0-1.994-4.798 6.807 6.807 0 0 0-3.941-1.939 6.895 6.895 0 0 0-.843-.053v.007h-.036v-.007a6.768 6.768 0 0 0-4.79 1.992 6.789 6.789 0 0 0-1.993 4.784h.005v.038h-.005zM23.377 78.07a8.33 8.33 0 0 1 4.704 1.446l.004.004 10.75-10.754.452-.45h32.226L86.72 53.104l1.38-1.379a9.83 9.83 0 0 1-2.505-6.546h-.007v-.038h.007a9.847 9.847 0 0 1 2.88-6.95 9.858 9.858 0 0 1 6.972-2.897v-.005h.036v.005a9.832 9.832 0 0 1 6.952 2.888 9.844 9.844 0 0 1 2.895 6.973h.007v.039h-.007a9.834 9.834 0 0 1-2.883 6.95l-.002-.003a9.856 9.856 0 0 1-6.974 2.895v.005h-.039v-.005a9.813 9.813 0 0 1-4.935-1.347L73.242 70.946l-.45.452H40.567L30.264 81.7a8.298 8.298 0 0 1 1.452 4.704 8.315 8.315 0 0 1-3.634 6.874 8.332 8.332 0 0 1-13.034-6.874c0-4.603 3.73-8.336 8.33-8.336" fill="#eeeeee"/><path d="M584.715-102.495l.451.452v48.411l8.319 8.318 4.933 4.933.449.45v110.31l7.932 7.93 2.89 2.893 3.094 3.088.451.452v88.388l10.569 10.578.447.45v99.367l-.447.444-3.75 3.753-10.364 10.363-6.138 6.138v23.492l-.46.457-9.606 9.603-11.694 11.692-5.31 5.31v29.56l5.31 5.31 11.694 11.693 16.204 16.203 9.78 9.777.449.451v16l5.15 4.027a8.297 8.297 0 0 1 5.508-2.081 8.338 8.338 0 0 1 8.34 8.338c0 3.197-1.806 5.971-4.452 7.372a8.33 8.33 0 0 1-3.888.958c-4.595 0-8.326-3.733-8.326-8.33 0-1.384.331-2.69.928-3.837l-5.745-4.49-.596-.463v-16.214l-7.148-7.147-16.204-16.205-11.694-11.692-6.745-6.744-1.197-1.198-.452-.449v-32.105l.459-.456 1.19-1.193 6.745-6.742 11.694-11.689 6.983-6.983v-23.502l.451-.451 8.77-8.77 10.103-10.101 1.389-1.388V185.43l-8.116-8.116-2.463-2.467-.451-.45V86.022l-.462-.462-2.593-2.596-10.861-10.856-.447-.446V-38.651l-2.303-2.304-10.948-10.948-.452-.447V-100.766l-.294-.292-6.745-6.744-9.694-9.693-2.857-2.856-.04-.041-.407-.404V-567.92h3.072v445.834l.232.229 9.694 9.695 6.745 6.744 2.924 2.924zM404.651-275.843l.45.452v93.693h-3.084v-92.416l-14.297-14.3-5.629-5.628-.446-.442v-.642l-1.094-256.209h-4.516v255.905l2.968 2.967 8.717 8.717 8.243 8.244.45.454v92.357h-3.082v-91.082l-5.611-5.614-8.717-8.715-5.597-5.6-.454-.45.005-.64v-259.621H383.605l.01 1.533 1.099 257.1 3.006 3.003 16.84 16.845.091.09zM119.191 103.716a6.788 6.788 0 0 0 1.555 4.305l.017-.017 1.041 1.043a6.762 6.762 0 0 0 4.158 1.451v-.007H125.998v.007a6.794 6.794 0 0 0 4.798-1.999 6.78 6.78 0 0 0 1.995-4.771h-.008V103.692h.008a6.787 6.787 0 0 0-1.995-4.798 6.776 6.776 0 0 0-4.783-1.99v.002h-.039v-.002a6.775 6.775 0 0 0-4.79 1.99 6.806 6.806 0 0 0-1.993 4.78h.008V103.717h-.008zm-70.713 70.67a8.31 8.31 0 0 1 6.332 2.909l.927-.536 5.112-2.95v-26.791l.451-.452 13.252-13.247.446-.449H95.9l.427-.425 10.808-10.813 11.436-11.435a9.819 9.819 0 0 1-2.449-6.481h-.007V103.674h.007a9.83 9.83 0 0 1 2.881-6.944 9.842 9.842 0 0 1 6.971-2.897v-.008h.039v.008a9.844 9.844 0 0 1 6.949 2.883 9.848 9.848 0 0 1 2.9 6.976h.002V103.728h-.002a9.864 9.864 0 0 1-2.885 6.954 9.863 9.863 0 0 1-6.979 2.885v.008H125.962v-.008a9.757 9.757 0 0 1-5.01-1.39l-13.817 13.816-9.506 9.51-.452.448H76.266L63.92 148.293v27.287l-.77.445-6.8 3.921c.304.87.464 1.804.464 2.775 0 4.6-3.73 8.332-8.336 8.332-4.597 0-8.33-3.733-8.33-8.332 0-4.603 3.733-8.336 8.33-8.336" fill="#eeeeee"/></svg>